<svg xmlns="http://www.w3.org/2000/svg" width="1536" height="1024" viewBox="0 0 1536 1024"><defs><linearGradient id="paper" x1="0" y1="0" x2="1" y2="1"><stop offset="0" stop-color="#f7edda"/><stop offset=".5" stop-color="#eee1c9"/><stop offset="1" stop-color="#e7d8bd"/></linearGradient><linearGradient id="flap" x1="0" y1="0" x2="0" y2="1"><stop offset="0" stop-color="#fbf1df"/><stop offset="1" stop-color="#e9dcc5"/></linearGradient><filter id="shadow" x="-20%" y="-20%" width="140%" height="150%"><feDropShadow dx="0" dy="14" stdDeviation="14" flood-opacity=".45"/></filter><filter id="bow"><feDropShadow dx="0" dy="3" stdDeviation="3" flood-opacity=".3"/></filter></defs><rect width="1536" height="1024" fill="#000"/><g filter="url(#shadow)"><rect x="80" y="125" width="1376" height="798" rx="2" fill="url(#paper)"/><path d="M80 125 L768 545 L1456 125 Z" fill="url(#flap)" stroke="#c8b99f" stroke-width="3"/><path d="M80 923 L555 500 M1456 923 L981 500" fill="none" stroke="#c8b99f" stroke-width="3"/><path d="M80 125 L555 500 M1456 125 L981 500" fill="none" stroke="#d4c7b1" stroke-width="3"/></g><g filter="url(#bow)" fill="#173f75" stroke="#102f5a" stroke-width="2"><path d="M768 485 C720 405 610 388 598 453 C588 507 654 542 735 505 C700 565 702 641 746 650 L768 545 Z"/><path d="M768 485 C816 405 926 388 938 453 C948 507 882 542 801 505 C836 565 834 641 790 650 L768 545 Z"/><path d="M768 495 C730 455 742 426 768 426 C794 426 806 455 768 495 Z" fill="#244f8b"/><circle cx="768" cy="495" r="25" fill="#234d86"/><path d="M744 525 L712 690 L768 635 L824 690 L792 525 Z" fill="#173f75"/></g></svg>